# AST/ASF file generated using VICON BodyLanguage
# -----------------------------------------------
:version 1.10
:name VICON
:units
  mass 1.0
  length 0.45
  angle deg
:documentation
   .ast/.asf automatically generated from VICON data using
   VICON BodyBuilder and BodyLanguage model FoxedUp or BRILLIANT.MOD
:root
   order TX TY TZ RX RY RZ
   axis XYZ
   position 0 0 0  
   orientation 0 0 0 
:bonedata
  begin
     id 1 
     name lhipjoint
     direction 0.78388 -0.462562 0.414208 
     length 3.01181 
     axis 0 0 0  XYZ
  end
  begin
     id 2 
     name lfemur
     direction 0.34202 -0.939693 0  
     length 6.04673  
     axis 0 0 20  XYZ
    dof rx ry rz
    limits (-160.0 20.0)
           (-70.0 70.0)
           (-60.0 70.0)
  end
  begin
     id 3 
     name ltibia
     direction 0.34202 -0.939693 0   
     length 7.211   
     axis 0 0 20   XYZ
    dof rx
    limits (-10.0 170.0)
  end
  begin
     id 4 
     name lfoot
     direction 0.121887 -0.334882 0.934344   
     length 2.13567   
     axis -90 7.62852e-016 20   XYZ
    dof rx rz
    limits (-45.0 90.0)
           (-70.0 20.0)
  end
  begin
     id 5 
     name ltoes
     direction 1.53555e-011 -4.2179e-011 1   
     length 1.05957   
     axis -90 7.62852e-016 20   XYZ
    dof rx
    limits (-90.0 20.0)
  end
  begin
     id 6 
     name rhipjoint
     direction -0.769387 -0.475875 0.426129   
     length 2.92756  
     axis 0 0 0  XYZ 
  end
  begin
     id 7 
     name rfemur
     direction -0.34202 -0.939693 0   
     length 6.35468   
     axis 0 0 -20   XYZ
    dof rx ry rz
    limits (-160.0 20.0)
           (-70.0 70.0)
           (-70.0 60.0)
  end
  begin
     id 8 
     name rtibia
     direction -0.34202 -0.939693 0   
     length 7.37886   
     axis 0 0 -20   XYZ
    dof rx
    limits (-10.0 170.0)
 end
 begin
     id 9 
     name rfoot
     direction -0.101763 -0.279592 0.954711   
     length 2.21478  
     axis -90 -7.62852e-016 -20   XYZ
    dof rx rz
    limits (-45.0 90.0)
           (-20.0 70.0)
  end
  begin
     id 10 
     name rtoes
     direction -1.53494e-011 -4.21851e-011 1   
     length 1.10506   
     axis -90 -7.62852e-016 -20   XYZ
    dof rx
    limits (-90.0 20.0)
  end
  begin
     id 11 
     name lowerback
     direction 0.00747405 0.999267 0.0375481   
     length 2.13259   
     axis 0 0 0   XYZ
    dof rx ry rz
    limits (-20.0 45.0)
           (-30.0 30.0)
           (-30.0 30.0)
  end
  begin
     id 12 
     name upperback
     direction 0.00661626 0.996177 0.0871029   
     length 2.10528   
     axis 0 0 0   XYZ
    dof rx ry rz
    limits (-20.0 45.0)
           (-30.0 30.0)
           (-30.0 30.0)
  end
  begin
     id 13 
     name thorax
     direction 0.00320659 0.997679 0.0680167   
     length 2.11338   
     axis 0 0 0   XYZ
    dof rx ry rz
    limits (-20.0 45.0)
           (-30.0 30.0)
           (-30.0 30.0)
  end
  begin
     id 14 
     name lowerneck
     direction 0.0374841 0.973033 0.227602   
     length 1.42765   
     axis 0 0 0   XYZ
    dof rx ry rz
    limits (-20.0 45.0)
           (-30.0 30.0)
           (-30.0 30.0)
  end
  begin
     id 15 
     name upperneck
     direction 0.00481585 0.989155 -0.146795   
     length 1.47593   
     axis 0 0 0   XYZ
    dof rx ry rz
    limits (-20.0 45.0)
           (-30.0 30.0)
           (-30.0 30.0)
  end
  begin
     id 16
     name head
     direction -0.00292522 0.997206 -0.0746423  
     length 1.48116  
     axis 0 0 0   XYZ
    dof rx ry rz
    limits (-20.0 45.0)
           (-30.0 30.0)
           (-30.0 30.0)
  end
  begin
     id 17 
     name lclavicle
     direction 0.951444 0.305606 0.0368784  
     length 3.01855  
     axis 0 0 0   XYZ
    dof ry rz
    limits (-20.0 10.0)
           (0.0 20.0)
  end
  begin
     id 18 
     name lhumerus
     direction 1 -4.48977e-011 2.61664e-027   
     length 5.52731   
     axis 180 -30 -90   XYZ
    dof rx ry rz
    limits (-60.0 90.0)
           (-90.0 90.0)
           (-90.0 90.0)
  end
  begin
     id 19
     name lradius
     direction 1 -4.48944e-011 8.22157e-027   
     length 3.11059   
     axis 180 -30 -90   XYZ
    dof rx
    limits (-10.0 170.0)
  end
  begin
     id 20
     name lwrist
     direction 1 -4.48976e-011 1.5779e-026   
     length 1.5553   
     axis -1.15221e-014 90 90   XYZ
    dof ry
    limits (-180.0 0.0)
 end
  begin
     id 21 
     name lhand
     direction 1 -4.49025e-011 3.1558e-026   
     length 0.419626   
     axis -2.01367e-014 90 90   XYZ
    dof rx rz
    limits (-90.0 90.0)
           (-45.0 45.0)
  end
  begin
     id 22 
     name lfingers
     direction 1 -4.4904e-011 6.31161e-026   
     length 0.338313   
     axis -4.02734e-014 90 90   XYZ
    dof rx
    limits (0.0 90.0)
  end
  begin
     id 23
     name lthumb
     direction 0.707107 -6.35004e-011 0.707107   
     length 0.485752   
     axis -90 45 2.85299e-015   XYZ
    dof rx rz
    limits (-45.0 45.0)
           (-45.0 45.0)
  end
  begin
     id 24 
     name rclavicle
     direction -0.968876 0.223791 0.105816   
     length 3.04177  
     axis 0 0 0   XYZ 
    dof ry rz
    limits (-10.0 20.0)
           (-20.0 0.0)
  end
  begin
     id 25 
     name rhumerus
     direction -1 -4.48962e-011 -1.01384e-027  
     length 5.25396   
     axis 180 30 90   XYZ
    dof rx ry rz
    limits (-90.0 60.0)
           (-90.0 90.0)
           (-90.0 90.0)
  end
  begin
     id 26 
     name rradius
     direction -1 -4.48955e-011 8.88542e-027   
     length 3.10567   
     axis 180 30 90   XYZ
    dof rx
    limits (-10.0 170.0)
  end
  begin
     id 27 
     name rwrist
     direction -1 -4.48994e-011 1.5779e-026   
     length 1.55283   
     axis -1.15221e-014 -90 -90   XYZ
    dof ry
    limits (-180.0 0.0)
  end
  begin
     id 28
     name rhand
     direction -1 -4.48891e-011 3.1558e-026   
     length 0.498676   
     axis -2.01367e-014 -90 -90   XYZ
    dof rx rz
    limits (-90.0 90.0)
           (-45.0 45.0)
  end
  begin
     id 29
     name rfingers
     direction -1 -4.48972e-011 6.31161e-026   
     length 0.402045   
     axis -4.02734e-014 -90 -90   XYZ
    dof rx
    limits (0.0 90.0)
  end
  begin
     id 30
     name rthumb
     direction -0.707107 -6.34849e-011 0.707107   
     length 0.577259   
     axis -90 -45 -2.85299e-015   XYZ
    dof rx rz
    limits (-45.0 45.0)
           (-45.0 45.0)
  end
:hierarchy
  begin
    root lhipjoint rhipjoint lowerback
    lhipjoint lfemur
    lfemur ltibia
    ltibia lfoot
    lfoot ltoes
    rhipjoint rfemur
    rfemur rtibia
    rtibia rfoot
    rfoot rtoes
    lowerback upperback
    upperback thorax
    thorax lowerneck lclavicle rclavicle
    lowerneck upperneck
    upperneck head
    lclavicle lhumerus
    lhumerus lradius
    lradius lwrist
    lwrist lhand lthumb
    lhand lfingers
    rclavicle rhumerus
    rhumerus rradius
    rradius rwrist
    rwrist rhand rthumb
    rhand rfingers
  end

#!OML:ASF H:\Pregnant\Project 1\Capture day 1\Session 1\femalepreg.ASF
:FULLY-SPECIFIED
:DEGREES
53
root 10.4741 15.2283 21.5419 -146.786 -13.4874 -180.473
lowerback -2.3586 -1.00128 9.91793
upperback -3.5454 -1.77945 4.45988
thorax -2.50558 -1.26341 -0.903539
lowerneck -15.4988 4.21708 2.65819
upperneck 26.3372 5.43464 -4.35025
head 11.3168 1.80714 -1.34023
rclavicle 2.38542e-015 -6.36111e-014
rhumerus -19.3401 16.9984 -81.398
rradius 50.1506
rwrist -15.4183
rhand -18.4843 -26.6021
rfingers 7.12502
rthumb 7.80295 -56.4381
lclavicle 2.38542e-015 -6.36111e-014
lhumerus -27.7546 -20.0958 89.3322
lradius 46.8819
lwrist 47.7459
lhand -27.9869 -2.22141
lfingers 7.12502
lthumb -1.37323 27.7539
rfemur -64.5858 -0.944136 11.8788
rtibia 43.2982
rfoot -6.4833 -15.2721
rtoes -20.2382
lfemur -61.6747 4.85677 -6.8882
ltibia 60.6264
lfoot -4.32105 -10.8137
ltoes -32.9147
54
root 10.4978 15.2339 21.511 -146.491 -13.5184 -180.717
lowerback -1.98539 -1.01881 9.78847
upperback -3.48103 -1.74648 4.50393
thorax -2.64 -1.24245 -0.777711
lowerneck -15.6192 4.20892 2.64515
upperneck 26.2082 5.46659 -4.42238
head 11.2952 1.82133 -1.35517
rclavicle 2.8625e-014 -3.18055e-015
rhumerus -18.7099 17.3721 -81.3827
rradius 49.9701
rwrist -15.5938
rhand -18.489 -26.743
rfingers 7.12502
rthumb 7.79837 -56.5792
lclavicle 2.8625e-014 -3.18055e-015
lhumerus -27.4076 -20.3827 89.4653
lradius 47.2423
lwrist 47.6196
lhand -27.833 -2.22991
lfingers 7.12502
lthumb -1.2246 27.7463
rfemur -64.8782 -1.31207 11.9807
rtibia 43.5163
rfoot -6.64329 -15.0761
rtoes -20.301
lfemur -62.3372 5.11706 -6.91205
ltibia 59.9466
lfoot -4.74621 -9.25047
ltoes -32.98
55
root 10.5197 15.2405 21.4805 -146.188 -13.5167 -180.976
lowerback -1.60964 -1.03402 9.61971
upperback -3.41972 -1.7096 4.53631
thorax -2.77813 -1.21825 -0.642646
lowerneck -15.7383 4.20477 2.64059
upperneck 26.0804 5.50105 -4.49384
head 11.2743 1.8374 -1.37098
rclavicle -7.15625e-015 -8.5875e-014
rhumerus -18.0721 17.7595 -81.3507
rradius 49.7706
rwrist -15.7407
rhand -18.4464 -26.8392
rfingers 7.12502
rthumb 7.83949 -56.6738
lclavicle -7.15625e-015 -8.5875e-014
lhumerus -27.0707 -20.6822 89.5971
lradius 47.6315
lwrist 47.4857
lhand -27.662 -2.21707
lfingers 7.12502
lthumb -1.05946 27.76
rfemur -65.1696 -1.66062 12.0424
rtibia 43.7115
rfoot -6.78883 -14.8824
rtoes -20.3455
lfemur -62.8977 5.33795 -6.93634
ltibia 59.0336
lfoot -5.08581 -7.66432
ltoes -32.9816
56
root 10.5398 15.2479 21.4503 -145.869 -13.4961 -181.231
lowerback -1.25219 -1.04377 9.43703
upperback -3.36433 -1.66882 4.55969
thorax -2.91204 -1.1917 -0.509996
lowerneck -15.8493 4.2037 2.65213
upperneck 25.9502 5.53516 -4.56717
head 11.2514 1.85467 -1.39033
rclavicle -5.24792e-014 2.8625e-014
rhumerus -17.4282 18.162 -81.3086
rradius 49.539
rwrist -15.828
rhand -18.3908 -26.8461
rfingers 7.12502
rthumb 7.89319 -56.6788
lclavicle -5.24792e-014 2.8625e-014
lhumerus -26.7449 -20.997 89.7198
lradius 48.0468
lwrist 47.3459
lhand -27.4659 -2.20212
lfingers 7.12502
lthumb -0.870097 27.7759
rfemur -65.47 -1.98777 12.0881
rtibia 43.8794
rfoot -6.91794 -14.6961
rtoes -20.3821
lfemur -63.3754 5.52037 -6.9267
ltibia 57.9089
lfoot -5.33624 -6.10027
ltoes -32.9362
57
root 10.5582 15.2555 21.4204 -145.527 -13.4675 -181.468
lowerback -0.922942 -1.04648 9.25954
upperback -3.31531 -1.62391 4.57667
thorax -3.03717 -1.16332 -0.3878
lowerneck -15.9571 4.20458 2.6746
upperneck 25.8166 5.56755 -4.63689
head 11.2268 1.87279 -1.41046
rclavicle 2.70347e-014 -2.38542e-014
rhumerus -16.7746 18.569 -81.2575
rradius 49.2748
rwrist -15.8547
rhand -18.3317 -26.7476
rfingers 7.12502
rthumb 7.95019 -56.5781
lclavicle 2.70347e-014 -2.38542e-014
lhumerus -26.415 -21.3429 89.8292
lradius 48.4673
lwrist 47.2115
lhand -27.2629 -2.17446
lfingers 7.12502
lthumb -0.674042 27.8042
rfemur -65.7845 -2.29211 12.1338
rtibia 44.0163
rfoot -7.02759 -14.5206
rtoes -20.416
lfemur -63.7822 5.66593 -6.86064
ltibia 56.5887
lfoot -5.49316 -4.57062
ltoes -32.8607
58
root 10.5749 15.2637 21.3903 -145.165 -13.4381 -181.68
lowerback -0.629831 -1.0446 9.09403
upperback -3.26791 -1.57949 4.59137
thorax -3.14442 -1.13522 -0.275781
lowerneck -16.0631 4.20816 2.70432
upperneck 25.6769 5.59999 -4.70086
head 11.1996 1.89265 -1.42962
rclavicle -1.35174e-014 -4.29375e-014
rhumerus -16.1061 18.9836 -81.1981
rradius 48.9904
rwrist -15.8236
rhand -18.2687 -26.6116
rfingers 7.12502
rthumb 8.01097 -56.4398
lclavicle -1.35174e-014 -4.29375e-014
lhumerus -26.0699 -21.7187 89.9198
lradius 48.8829
lwrist 47.0919
lhand -27.0563 -2.08325
lfingers 7.12502
lthumb -0.47443 27.896
rfemur -66.1081 -2.5728 12.1884
rtibia 44.1209
rfoot -7.11893 -14.3597
rtoes -20.4486
lfemur -64.117 5.77721 -6.728
ltibia 55.0855
lfoot -5.54975 -3.06715
ltoes -32.8217
